<?xml version="1.0" encoding="UTF-8"?>
<svg width="80px" height="80px" viewBox="0 0 80 80" version="1.1" xmlns="http://www.w3.org/2000/svg" xmlns:xlink="http://www.w3.org/1999/xlink">
    <title>icon_graphical</title>
    <g id="pad" stroke="none" stroke-width="1" fill="none" fill-rule="evenodd">
        <g id="课中环节_状态集合" transform="translate(-440.000000, -2637.000000)">
            <g id="编组-11备份-12" transform="translate(192.000000, 2621.000000)">
                <g id="icon_graphical" transform="translate(248.000000, 16.000000)">
                    <path d="M20.5110816,-8.28672246e-16 L59.4889184,8.28672246e-16 C66.6210683,-4.81482439e-16 69.2073582,0.742604889 71.8147656,2.13706163 C74.422173,3.53151837 76.4684816,5.57782696 77.8629384,8.18523437 C79.2573951,10.7926418 80,13.3789317 80,20.5110816 L80,59.4889184 C80,66.6210683 79.2573951,69.2073582 77.8629384,71.8147656 C76.4684816,74.422173 74.422173,76.4684816 71.8147656,77.8629384 C69.2073582,79.2573951 66.6210683,80 59.4889184,80 L20.5110816,80 C13.3789317,80 10.7926418,79.2573951 8.18523437,77.8629384 C5.57782696,76.4684816 3.53151837,74.422173 2.13706163,71.8147656 C0.742604889,69.2073582 3.20988293e-16,66.6210683 -5.52448164e-16,59.4889184 L5.52448164e-16,20.5110816 C-3.20988293e-16,13.3789317 0.742604889,10.7926418 2.13706163,8.18523437 C3.53151837,5.57782696 5.57782696,3.53151837 8.18523437,2.13706163 C10.7926418,0.742604889 13.3789317,4.81482439e-16 20.5110816,-8.28672246e-16 Z" id="bone" fill="#1B1B1B" opacity="0"></path>
                    <g id="编组-25" transform="translate(21.000000, 24.000000)" stroke="#BBBBBB" stroke-width="6.5">
                        <rect id="矩形" x="-3.25" y="-3.25" width="35.5" height="35.5" rx="2"></rect>
                        <circle id="椭圆形" fill="#ffffff" cx="33" cy="25" r="13.25"></circle>
                    </g>
                </g>
            </g>
        </g>
    </g>
</svg>
